<svg xmlns="http://www.w3.org/2000/svg" width="31.312" height="43" viewBox="0 0 31.312 43">
  <metadata><?xpacket begin="﻿" id="W5M0MpCehiHzreSzNTczkc9d"?>
<x:xmpmeta xmlns:x="adobe:ns:meta/" x:xmptk="Adobe XMP Core 5.6-c138 79.159824, 2016/09/14-01:09:01        ">
   <rdf:RDF xmlns:rdf="http://www.w3.org/1999/02/22-rdf-syntax-ns#">
      <rdf:Description rdf:about=""/>
   </rdf:RDF>
</x:xmpmeta>
                                                                                                    
                                                                                                    
                                                                                                    
                                                                                                    
                                                                                                    
                                                                                                    
                                                                                                    
                                                                                                    
                                                                                                    
                                                                                                    
                                                                                                    
                                                                                                    
                                                                                                    
                                                                                                    
                                                                                                    
                                                                                                    
                                                                                                    
                                                                                                    
                                                                                                    
                                                                                                    
                           
<?xpacket end="w"?></metadata>
<defs>
    <style>
      .cls-1 {
        fill: #fff;
        fill-rule: evenodd;
      }
    </style>
  </defs>
  <path id="Forma_1" data-name="Forma 1" class="cls-1" d="M633,153.191a7.358,7.358,0,1,1,7.273-7.359A7.325,7.325,0,0,1,633,153.191Zm0-13.42a6.063,6.063,0,1,0,5.992,6.063A6.035,6.035,0,0,0,633,139.771Zm0,33.236a0.633,0.633,0,0,1-.49-0.233c-0.62-.747-15.168-18.414-15.168-26.94a15.66,15.66,0,1,1,31.317,0c0,8.528-14.549,26.193-15.167,26.942A0.646,0.646,0,0,1,633,173.007Zm0-41.72a14.479,14.479,0,0,0-14.378,14.547c0,7.216,11.8,22.3,14.378,25.5,2.574-3.2,14.378-18.289,14.378-25.5A14.48,14.48,0,0,0,633,131.287Z" transform="translate(-617.344 -130)"/>
</svg>
