<svg xmlns="http://www.w3.org/2000/svg" width="45" height="32" viewBox="0 0 45 32">
  <metadata><?xpacket begin="﻿" id="W5M0MpCehiHzreSzNTczkc9d"?>
<x:xmpmeta xmlns:x="adobe:ns:meta/" x:xmptk="Adobe XMP Core 5.6-c138 79.159824, 2016/09/14-01:09:01        ">
   <rdf:RDF xmlns:rdf="http://www.w3.org/1999/02/22-rdf-syntax-ns#">
      <rdf:Description rdf:about=""/>
   </rdf:RDF>
</x:xmpmeta>
                                                                                                    
                                                                                                    
                                                                                                    
                                                                                                    
                                                                                                    
                                                                                                    
                                                                                                    
                                                                                                    
                                                                                                    
                                                                                                    
                                                                                                    
                                                                                                    
                                                                                                    
                                                                                                    
                                                                                                    
                                                                                                    
                                                                                                    
                                                                                                    
                                                                                                    
                                                                                                    
                           
<?xpacket end="w"?></metadata>
<defs>
    <style>
      .cls-1 {
        fill: #fff;
        fill-rule: evenodd;
      }
    </style>
  </defs>
  <path id="Forma_1_copy_2" data-name="Forma 1 copy 2" class="cls-1" d="M365,159l-8-7c-1-1,0-2,1-1l8,7C367,159,366,160,365,159Zm-25-1,7-7c1-1,2,0,1,1l-7,7C340,160,339,159,340,158Zm34,9H331a0.979,0.979,0,0,1-1-1V136a0.979,0.979,0,0,1,1-1h43a0.979,0.979,0,0,1,1,1v30A0.979,0.979,0,0,1,374,167Zm-43-31v30h43V136H331Zm20,18-20-17v-1h1l20,17h1l20-17h1v1l-20,17A1.875,1.875,0,0,1,351,154Z" transform="translate(-330 -135)"/>
</svg>
