<svg xmlns="http://www.w3.org/2000/svg" width="39.781" height="40.156" viewBox="0 0 39.781 40.156">
  <metadata><?xpacket begin="﻿" id="W5M0MpCehiHzreSzNTczkc9d"?>
<x:xmpmeta xmlns:x="adobe:ns:meta/" x:xmptk="Adobe XMP Core 5.6-c138 79.159824, 2016/09/14-01:09:01        ">
   <rdf:RDF xmlns:rdf="http://www.w3.org/1999/02/22-rdf-syntax-ns#">
      <rdf:Description rdf:about=""/>
   </rdf:RDF>
</x:xmpmeta>
                                                                                                    
                                                                                                    
                                                                                                    
                                                                                                    
                                                                                                    
                                                                                                    
                                                                                                    
                                                                                                    
                                                                                                    
                                                                                                    
                                                                                                    
                                                                                                    
                                                                                                    
                                                                                                    
                                                                                                    
                                                                                                    
                                                                                                    
                                                                                                    
                                                                                                    
                                                                                                    
                           
<?xpacket end="w"?></metadata>
<defs>
    <style>
      .cls-1 {
        fill: #fff;
        fill-rule: evenodd;
      }
    </style>
  </defs>
  <path id="Forma_1" data-name="Forma 1" class="cls-1" d="M83.354,170.988a16.964,16.964,0,0,1-5.856-1.254c-4.825-1.835-10.072-5.46-14.778-10.206A44.349,44.349,0,0,1,52.6,144.622c-1.657-4.423-1.661-8.053-.013-9.715,0.238-.24.481-0.5,0.73-0.76,1.5-1.594,3.244-3.405,5.455-3.306,1.553,0.065,3.057,1.037,4.6,2.968,4.548,5.706,2.5,7.74.124,10.1l-0.421.419c-0.388.392-1.123,2.2,5.705,9.089a38.12,38.12,0,0,0,5.647,4.89c0.958,0.626,2.666,1.571,3.367.865l0.422-.429c2.336-2.391,4.352-4.452,10.009.133,1.916,1.553,2.879,3.07,2.944,4.638,0.092,2.272-1.7,3.989-3.285,5.5-0.26.25-.514,0.491-0.75,0.729A5.2,5.2,0,0,1,83.354,170.988Zm-24.743-38.8c-1.6,0-3.045,1.534-4.324,2.89-0.259.273-.509,0.539-0.754,0.786-1.227,1.236-1.1,4.488.319,8.284a42.989,42.989,0,0,0,9.815,14.428,42.593,42.593,0,0,0,14.3,9.9c3.764,1.433,6.989,1.557,8.216.319,0.245-.246.506-0.5,0.774-0.754,1.377-1.319,2.937-2.813,2.87-4.471-0.047-1.139-.869-2.364-2.445-3.64-4.714-3.819-6.031-2.469-8.216-.238l-0.428.437c-1.041,1.054-2.737.823-5.043-.689a39.376,39.376,0,0,1-5.864-5.066h0c-5.666-5.714-7.48-9.21-5.705-11l0.427-.426c2.22-2.2,3.56-3.535-.229-8.289-1.267-1.586-2.482-2.416-3.611-2.465Zm24.977,15.245a0.66,0.66,0,0,1-.252-0.05,0.674,0.674,0,0,1-.368-0.878,5.705,5.705,0,0,0-1.238-6.148,5.629,5.629,0,0,0-6.3-1.158,0.674,0.674,0,0,1-.552-1.229,6.95,6.95,0,0,1,7.8,1.434,7.058,7.058,0,0,1,1.531,7.609A0.672,0.672,0,0,1,83.589,147.431Zm5.978,2.447a0.66,0.66,0,0,1-.252-0.05,0.672,0.672,0,0,1-.368-0.877,12.24,12.24,0,0,0-2.653-13.2,12.065,12.065,0,0,0-13.519-2.486,0.675,0.675,0,0,1-.552-1.233A13.4,13.4,0,0,1,87.241,134.8a13.591,13.591,0,0,1,2.946,14.659A0.669,0.669,0,0,1,89.567,149.878Z" transform="translate(-51.375 -130.844)"/>
</svg>
