<svg xmlns="http://www.w3.org/2000/svg" width="400" height="76" viewBox="0 0 400 76">
  <defs>
    <style>
      .cls-1 { fill: #fff; fill-rule: evenodd; }
    </style>
  </defs>
  <path id="Logo" d="M109.535 26.288l.094-.092a1.755 1.755 0 0 1 1.239-.523h13.87a1.782 1.782 0 0 1 1.244.523l4.414 4.415 6.283-6.263-5.747-5.735a5.788 5.788 0 0 0-4.327-1.765h-17.6a5.789 5.789 0 0 0-4.33 1.765l-3.894 3.881a6.126 6.126 0 0 0-1.858 4.494v21.709a6.119 6.119 0 0 0 1.858 4.5l3.894 3.879a5.781 5.781 0 0 0 4.33 1.767h17.6a5.781 5.781 0 0 0 4.327-1.767l5.747-5.726-6.279-6.269-4.414 4.413a1.765 1.765 0 0 1-1.244.528h-13.87a1.739 1.739 0 0 1-1.239-.528l-.094-.093a1.59 1.59 0 0 1-.527-1.232V27.522a1.592 1.592 0 0 1 .527-1.234m67.8-7.675a5.8 5.8 0 0 0-4.323-1.765h-18.839a5.759 5.759 0 0 0-4.325 1.765l-3.894 3.881a6.143 6.143 0 0 0-1.857 4.494v21.709a6.131 6.131 0 0 0 1.857 4.5l3.894 3.881a5.751 5.751 0 0 0 4.325 1.767h18.838a5.79 5.79 0 0 0 4.323-1.767l3.9-3.881a6.535 6.535 0 0 0 1.857-4.672V26.989a6.147 6.147 0 0 0-1.857-4.494zm-4.323 29.555a1.609 1.609 0 0 1-.541 1.232l-.084.093a1.761 1.761 0 0 1-1.232.528h-15.134a1.776 1.776 0 0 1-1.234-.528l-.089-.093a1.612 1.612 0 0 1-.525-1.232V27.522a1.61 1.61 0 0 1 .525-1.234l.089-.092a1.793 1.793 0 0 1 1.234-.523h15.133a1.777 1.777 0 0 1 1.232.523l.084.092a1.607 1.607 0 0 1 .541 1.234v20.647zm52.244-29.555a5.785 5.785 0 0 0-4.328-1.765H212a5.824 5.824 0 0 0-4.342 1.765l-4.238 4.236-1.411-6h-9.554l1.773 7.322v34.666h10.077V33.7a1.578 1.578 0 0 1 .537-1.237l6.884-6.878a1.765 1.765 0 0 1 1.244-.531h5.478a1.717 1.717 0 0 1 1.234.531l.712.7a1.621 1.621 0 0 1 .537 1.234v31.318H231V26.989a6.122 6.122 0 0 0-1.843-4.494zM255.781 0H245.7v16.847h-7.432v8.827h7.432V49.32a6.136 6.136 0 0 0 1.846 4.5l3.276 3.257a5.8 5.8 0 0 0 4.331 1.765h14.852v-8.82h-12.37a1.8 1.8 0 0 1-1.251-.53l-.086-.091a1.626 1.626 0 0 1-.521-1.232v-22.5h14.228v-8.822h-14.224V0zm54.892 18.611a5.809 5.809 0 0 0-4.333-1.765h-18.83a5.789 5.789 0 0 0-4.328 1.765l-3.892 3.881a6.117 6.117 0 0 0-1.857 4.494v21.711a6.1 6.1 0 0 0 1.857 4.5l3.892 3.879a5.774 5.774 0 0 0 4.328 1.761h18.83a5.793 5.793 0 0 0 4.333-1.769l5.744-5.726-6.273-6.266-4.429 4.411a1.738 1.738 0 0 1-1.232.53h-15.116a1.706 1.706 0 0 1-1.232-.53l-.091-.091a1.57 1.57 0 0 1-.534-1.232v-7.5h28.907V26.986a6.116 6.116 0 0 0-1.86-4.494zm-4.333 13.85h-18.83v-4.937a1.558 1.558 0 0 1 .534-1.234l.091-.091a1.716 1.716 0 0 1 1.232-.523h15.116a1.749 1.749 0 0 1 1.232.523l.092.091a1.567 1.567 0 0 1 .533 1.234v4.936zm93.632-6.787v-8.826H385.74l-.014-16.851h-10.092l.031 16.851h-7.424v8.825h7.424v23.648a6.167 6.167 0 0 0 1.855 4.5l3.269 3.257a5.791 5.791 0 0 0 4.34 1.767h14.843v-8.82H387.6a1.742 1.742 0 0 1-1.234-.53l-.086-.091a1.6 1.6 0 0 1-.539-1.235V25.673h14.232zM69.451 1.759A5.8 5.8 0 0 0 65.116 0H10.078a5.819 5.819 0 0 0-4.33 1.759L1.865 5.637A6.105 6.105 0 0 0 0 10.144v14.735h10.078V10.673a1.614 1.614 0 0 1 .535-1.236l.087-.086a1.776 1.776 0 0 1 1.242-.529h51.31a1.749 1.749 0 0 1 1.246.529l.086.086a1.6 1.6 0 0 1 .532 1.236V65.02a1.594 1.594 0 0 1-.532 1.239l-.086.092a1.767 1.767 0 0 1-1.246.519H11.94a1.794 1.794 0 0 1-1.242-.519l-.086-.092a1.6 1.6 0 0 1-.534-1.239V44.107a1.571 1.571 0 0 1 .534-1.224l.086-.094a1.77 1.77 0 0 1 1.242-.529h22.582l-8.8 8.622v7.869h2.058a5.783 5.783 0 0 0 4.32-1.755l3.72-3.714 12.608-12.535a4.2 4.2 0 0 0 .9-1.794c.007-.055.021-.1.033-.16a3.656 3.656 0 0 0 .113-.947.036.036 0 0 1-.01-.017c0-.007.01-.007.01-.014a3.778 3.778 0 0 0-.113-.95 1.347 1.347 0 0 1-.033-.155 4.2 4.2 0 0 0-.9-1.789L34.861 21.459 32.1 18.694a5.8 5.8 0 0 0-4.318-1.757h-2.058v7.959l3.465 3.368 5.322 5.173H10.078a5.84 5.84 0 0 0-4.331 1.761l-3.882 3.885A6.1 6.1 0 0 0 0 43.583V65.55a6.1 6.1 0 0 0 1.862 4.5l3.883 3.882a5.822 5.822 0 0 0 4.331 1.769h55.04a5.806 5.806 0 0 0 4.335-1.769l3.892-3.882a6.522 6.522 0 0 0 1.85-4.676v-55.23a6.131 6.131 0 0 0-1.85-4.5zm284.213 16.935l-2.758 2.76-9.046 9-9.063-9-2.756-2.76a5.8 5.8 0 0 0-4.313-1.757h-2.064v7.959l3.458 3.366 8.756 8.5a1.65 1.65 0 0 1 0 2.133l-12.214 11.986v7.87h2.064a5.776 5.776 0 0 0 4.313-1.761l3.716-3.709 8.1-8.054 8.087 8.054 3.717 3.709a5.768 5.768 0 0 0 4.328 1.761h2.061v-7.87l-12.221-11.985a1.654 1.654 0 0 1 0-2.133l8.752-8.5 3.472-3.366v-7.96h-2.061a5.794 5.794 0 0 0-4.328 1.753" class="cls-1"/>
</svg>
