<?xml version="1.0" standalone="no"?>
<!DOCTYPE svg PUBLIC "-//W3C//DTD SVG 20010904//EN"
 "http://www.w3.org/TR/2001/REC-SVG-20010904/DTD/svg10.dtd">
<svg version="1.0" xmlns="http://www.w3.org/2000/svg"
 width="700.000000pt" height="700.000000pt" viewBox="0 0 700.000000 700.000000"
 preserveAspectRatio="xMidYMid meet">
<metadata>
Created by potrace 1.11, written by Peter Selinger 2001-2013
</metadata>
<g transform="translate(0.000000,700.000000) scale(0.100000,-0.100000)"
fill="#000000" stroke="none">
<path d="M976 6973 c-1 -1 -28 -3 -61 -4 -84 -3 -159 -25 -235 -66 -51 -28
-117 -87 -306 -277 -136 -135 -253 -261 -268 -288 -36 -62 -64 -145 -72 -210
-5 -40 -10 -1361 -5 -1425 1 -10 101 -13 465 -13 l464 0 0 669 0 669 22 40
c25 44 91 92 130 93 14 0 1094 1 2400 1 1834 1 2383 -2 2412 -11 20 -7 49 -24
64 -39 60 -60 56 136 56 -2618 0 -2261 -2 -2525 -16 -2552 -8 -16 -34 -46 -58
-66 -35 -31 -49 -36 -92 -37 -28 0 -1111 -1 -2406 -1 -1762 -1 -2364 2 -2390
10 -42 14 -84 51 -106 94 -14 28 -16 131 -16 1024 0 1124 -7 1034 81 1098 l43
31 1063 0 c927 0 1062 -2 1052 -14 -11 -14 -198 -198 -407 -401 -52 -50 -160
-156 -240 -233 l-145 -142 0 -360 0 -360 99 -1 c196 -2 299 20 399 86 24 17
142 126 260 243 118 116 454 448 747 737 293 289 550 543 572 565 127 130 153
318 66 489 -11 21 -77 95 -148 165 -244 241 -1133 1117 -1289 1270 -254 250
-305 274 -591 275 l-115 1 0 -364 c0 -255 3 -368 11 -375 143 -138 482 -465
519 -501 108 -102 263 -254 268 -262 3 -5 -495 -9 -1131 -9 -625 0 -1162 -3
-1192 -7 -158 -19 -229 -63 -448 -280 -296 -293 -300 -297 -347 -388 -59 -114
-57 -73 -57 -1254 0 -594 2 -1093 5 -1108 12 -59 39 -139 58 -175 39 -69 73
-107 303 -337 241 -241 278 -269 395 -305 31 -9 88 -18 126 -19 118 -5 5178
-3 5215 2 54 7 130 29 136 38 3 5 12 9 20 9 36 0 132 82 345 292 190 188 232
235 267 297 83 152 76 -109 76 2811 0 1427 -3 2620 -6 2650 -17 155 -64 225
-321 479 -116 115 -228 223 -247 240 -67 58 -161 100 -265 117 -34 6 -5153 13
-5159 7z"/>
</g>
</svg>
