<svg enable-background="new 0 0 520.3 139.4" viewBox="0 0 520.3 139.4" xmlns="http://www.w3.org/2000/svg"><g fill="#fff"><path d="m145.8 41c-.4.5-.7.9-.7 1.6v26.1c0 .7.2 1.1.7 1.6l.1.1c.4.5 1 .7 1.6.7h17.5c.6 0 1.1-.2 1.6-.7l5.6-5.6 7.9 7.9-7.2 7.2c-1.6 1.6-3.4 2.2-5.5 2.2h-22.2c-2.1 0-3.9-.7-5.5-2.2l-4.9-4.9c-1.6-1.6-2.3-3.5-2.3-5.7v-27.4c0-2.2.8-4.1 2.3-5.7l4.9-4.9c1.6-1.6 3.4-2.2 5.5-2.2h22.2c2.1 0 3.9.7 5.5 2.2l7.2 7.2-7.9 7.9-5.6-5.6c-.4-.4-1-.7-1.6-.7h-17.5c-.6 0-1.1.2-1.6.7zm90.4-4.8c1.5 1.6 2.3 3.5 2.3 5.7v27.2c0 2.2-.8 4.3-2.3 5.9l-4.9 4.9c-1.6 1.6-3.4 2.2-5.5 2.2h-23.7c-2.1 0-3.9-.7-5.4-2.2l-4.9-4.9c-1.6-1.6-2.3-3.5-2.3-5.7v-27.4c0-2.2.8-4.1 2.3-5.7l4.9-4.9c1.6-1.6 3.3-2.2 5.4-2.2h23.7c2.1 0 3.9.7 5.5 2.2zm-10.4 6.3c0-.7-.2-1.1-.7-1.6l-.1-.1c-.4-.4-1-.7-1.5-.7h-19.1c-.6 0-1.1.2-1.6.7l-.1.1c-.4.5-.7.9-.7 1.6v26.1c0 .7.2 1.1.7 1.6l.1.1c.5.5 1 .7 1.6.7h19.1c.5 0 1.1-.2 1.5-.7l.1-.1c.4-.5.7-.9.7-1.6zm65.8-11.2c-1.5-1.6-3.3-2.2-5.5-2.2h-11.2c-2.1 0-3.9.7-5.5 2.2l-5.3 5.4-1.8-7.6h-12l2.2 9.2v43.8h12.7v-31.8c0-.7.2-1.1.7-1.6l8.7-8.7c.5-.5 1-.7 1.6-.7h6.9c.6 0 1.1.2 1.5.7l.9.9c.4.5.7.9.7 1.6v39.5h12.7v-40.1c0-2.2-.8-4.1-2.3-5.7zm38.5-23.5h-12.7v21.3h-9.4v11.1h9.4v29.9c0 2.2.8 4.1 2.3 5.7l4.1 4.1c1.6 1.6 3.4 2.2 5.5 2.2h18.7v-11.2h-15.6c-.6 0-1.1-.2-1.6-.7l-.1-.1c-.4-.5-.7-.9-.7-1.6v-28.3h18v-11.1h-17.9zm74.1 28.4c1.6 1.6 2.3 3.5 2.3 5.7v17.3h-36.4v9.5c0 .7.2 1.1.7 1.6l.1.1c.4.4 1 .7 1.5.7h19c.5 0 1.1-.2 1.5-.7l5.6-5.6 7.9 7.9-7.2 7.2c-1.6 1.6-3.4 2.2-5.5 2.2h-23.7c-2.1 0-3.9-.7-5.5-2.2l-4.9-4.9c-1.6-1.6-2.3-3.5-2.3-5.7v-27.4c0-2.2.8-4.1 2.3-5.7l4.9-4.9c1.6-1.6 3.4-2.2 5.5-2.2h23.7c2.1 0 3.9.7 5.5 2.2zm-10.4 6.3c0-.7-.2-1.1-.7-1.6l-.1-.1c-.4-.4-1-.7-1.5-.7h-19c-.6 0-1.1.2-1.5.7l-.1.1c-.5.5-.7.9-.7 1.6v6.2h23.7zm118-2.3v-11.1h-17.9v-21.3h-12.7v21.3h-9.4v11.1h9.4v29.9c0 2.2.8 4.1 2.3 5.7l4.1 4.1c1.5 1.6 3.3 2.2 5.5 2.2h18.7v-11.2h-15.6c-.5 0-1.1-.2-1.6-.7l-.1-.1c-.5-.4-.7-.9-.7-1.6v-28.3zm-416.5-30.2c-1.6-1.6-3.4-2.2-5.5-2.2h-69.3c-2.1 0-3.9.7-5.5 2.2l-4.9 4.9c-1.6 1.5-2.3 3.5-2.3 5.7v18.6h12.7v-17.9c0-.7.2-1.1.7-1.6l.1-.1c.5-.4 1-.7 1.6-.7h64.7c.6 0 1.1.2 1.6.7l.1.1c.4.5.7.9.7 1.6v68.6c0 .7-.2 1.1-.7 1.6l-.1.1c-.4.4-1 .7-1.6.7h-64.8c-.6 0-1.1-.2-1.6-.7l-.1-.1c-.5-.4-.7-.9-.7-1.6v-10.4-16c0-.7.2-1.1.7-1.5l.1-.1c.5-.4 1-.7 1.6-.7h18.6 9.8l-11 10.8v10h2.6c2.1 0 3.9-.7 5.4-2.2l4.7-4.7 15.9-15.8c.4-.4.9-1.2 1.1-2.3 0-.1 0-.1 0-.2.1-.4.1-.8.1-1.2s0 0 0 0c0-.4 0-.8-.1-1.2 0-.1 0-.1 0-.2-.3-1-.8-1.9-1.1-2.3l-17.1-17-3.5-3.5c-1.6-1.5-3.3-2.2-5.4-2.2h-2.6v10l4.4 4.2 6.7 6.5h-7.5-16.6-6.7c-2.1 0-3.9.7-5.5 2.2l-4.9 4.9c-1.6 1.5-2.3 3.5-2.3 5.7v8.4 8.4 11c0 2.2.8 4.1 2.3 5.7l4.9 4.9c1.6 1.6 3.3 2.2 5.5 2.2h69.3c2.1 0 3.9-.7 5.5-2.2l4.9-4.9c1.6-1.6 2.3-3.7 2.3-5.9v-69.7c0-2.2-.8-4.1-2.3-5.7zm358.1 21.4-3.5 3.5-11.4 11.4-11.4-11.4-3.5-3.5c-1.6-1.5-3.3-2.2-5.4-2.2h-2.6v10l4.4 4.2 11 10.7c.3.4.5.9.5 1.3 0 .5-.2 1-.5 1.4l-15.3 15.2v10h2.6c2.1 0 3.9-.7 5.4-2.2l4.7-4.7 10.2-10.2 10.2 10.2 4.7 4.7c1.5 1.6 3.3 2.2 5.5 2.2h2.6v-10l-15.4-15.1c-.3-.4-.5-.9-.5-1.4s.2-1 .5-1.3l11-10.7 4.4-4.2v-10h-2.6c-2.2-.1-4 .5-5.6 2.1"/><path d="m132.3 107.6h6.3c1.1 0 2.1.1 3 .4s1.8.6 2.5 1.1 1.3 1.2 1.7 2 .6 1.8.6 3v.1c0 1.2-.2 2.2-.6 3s-1 1.5-1.7 2-1.5.9-2.5 1.1-1.9.4-3 .4h-3.6v9h-2.7zm6.5 11.1c1.6 0 2.8-.4 3.6-1.1s1.2-1.8 1.2-3.3v-.1c0-1.6-.4-2.7-1.3-3.3s-2.1-1-3.6-1h-3.7v8.8z"/><path d="m153.1 130.1c-.7 0-1.4-.1-2.1-.3s-1.2-.5-1.7-.9-.9-.9-1.1-1.5-.4-1.3-.4-2.1c0-.9.2-1.7.7-2.4.4-.6 1.1-1.2 1.8-1.5s1.6-.7 2.6-.9 2-.3 3-.3h2.3v-1.2c0-1.3-.3-2.2-.8-2.8s-1.4-.9-2.7-.9c-2.2 0-3.5 1-3.7 2.9h-2.6c.1-.9.3-1.7.7-2.4.4-.6.9-1.2 1.5-1.6s1.2-.7 2-.9 1.5-.3 2.3-.3 1.5.1 2.2.3 1.4.5 1.9.9c.5.5 1 1 1.3 1.8s.5 1.7.5 2.8v10.7h-2.6v-2c-.6.8-1.3 1.3-2.1 1.7-.8.7-1.8.9-3 .9zm.3-2c.7 0 1.3-.1 1.9-.3s1.1-.4 1.5-.8.8-.7 1-1.2.4-1 .4-1.7v-2h-2.2c-.8 0-1.6.1-2.2.2s-1.3.3-1.8.5-.9.6-1.2 1-.4.9-.4 1.5c0 .9.2 1.5.7 2s1.1.8 2.3.8z"/><path d="m164.9 113.6h2.6v2.9c.2-.5.5-.9.9-1.3.3-.4.7-.7 1.1-1s.9-.5 1.5-.7 1.2-.3 1.9-.3v2.4c-.8 0-1.5.1-2.2.3s-1.2.4-1.7.8-.8.9-1.1 1.6c-.2.6-.4 1.5-.4 2.5v8.9h-2.6z"/><path d="m180.8 130c-1.5 0-2.6-.4-3.3-1.2s-1.1-1.8-1.1-3.1v-10h-2.3v-2.2h2.3v-3.7h2.6v3.7h3.8v2.2h-3.8v9.7c0 1.6.7 2.4 2 2.4.4 0 .8 0 1.1-.1s.6-.1.9-.2v2.2c-.3.1-.6.2-.9.2s-.7.1-1.3.1z"/><path d="m199.7 130.1c-1.2 0-2.2-.2-3.2-.6s-1.8-1-2.5-1.7-1.2-1.6-1.6-2.6-.6-2.1-.6-3.3v-.2c0-1.2.2-2.3.6-3.4s1-1.9 1.7-2.6 1.5-1.3 2.5-1.7 2-.6 3.2-.6c1.1 0 2.2.2 3.2.6s1.8 1 2.5 1.7 1.3 1.6 1.7 2.6.6 2.1.6 3.4v.2c0 1.2-.2 2.3-.6 3.4s-1 1.9-1.7 2.6-1.6 1.3-2.5 1.7c-1.1.3-2.1.5-3.3.5zm.1-2.2c.8 0 1.5-.1 2.2-.4s1.2-.7 1.7-1.2c.4-.5.8-1.2 1.1-1.9.2-.8.4-1.6.4-2.5v-.2c0-.9-.1-1.8-.4-2.5s-.6-1.4-1.1-1.9-1-1-1.7-1.2c-.6-.3-1.4-.4-2.2-.4s-1.5.1-2.2.4-1.2.7-1.7 1.2c-.4.5-.8 1.2-1.1 1.9-.2.8-.4 1.6-.4 2.5v.2c0 1.9.5 3.3 1.4 4.4 1 1.1 2.3 1.6 4 1.6z"/><path d="m211.4 115.8h-2.3v-2.2h2.3v-2.6c0-1.6.4-2.9 1.2-3.8s2-1.4 3.6-1.4c.4 0 .8 0 1 .1s.6.1.9.2v2.2c-.2-.1-.5-.2-.8-.2s-.7-.1-1-.1c-.9 0-1.4.3-1.8.8s-.5 1.2-.5 2v2.9h4v2.2h-4v14h-2.6z"/><path d="m232.5 107.6h8.2l7 22.2h-6.7l-1.2-4.1h-7.4l-1.2 4.1h-5.9zm1.3 13.7h4.9l-2.4-8.5z"/><path d="m256.3 130.2c-1.2 0-2.4-.2-3.4-.5s-1.9-.9-2.7-1.6-1.4-1.5-1.8-2.6c-.4-1-.6-2.2-.6-3.6v-.2c0-1.3.2-2.5.7-3.6.5-1 1.1-1.9 1.9-2.7.8-.7 1.7-1.3 2.7-1.7s2.2-.6 3.4-.6c1 0 2 .1 2.9.3s1.7.6 2.5 1.1c.7.5 1.3 1.2 1.8 2.1s.7 1.9.8 3.1h-5.2c-.1-.8-.4-1.4-.8-1.8s-1-.6-1.8-.6c-1 0-1.8.4-2.3 1-.5.7-.8 1.7-.8 3.1v.2c0 1.4.3 2.5.8 3.2s1.3 1.1 2.4 1.1c.8 0 1.4-.2 1.9-.7s.8-1.1.9-2h5c-.1 2-.8 3.7-2.2 4.9-1.5 1.5-3.5 2.1-6.1 2.1z"/><path d="m274 130.2c-1.2 0-2.4-.2-3.4-.5s-1.9-.9-2.7-1.6-1.4-1.5-1.8-2.6c-.4-1-.6-2.2-.6-3.6v-.2c0-1.3.2-2.5.7-3.6.5-1 1.1-1.9 1.9-2.7.8-.7 1.7-1.3 2.7-1.7s2.2-.6 3.4-.6c1 0 2 .1 2.9.3s1.7.6 2.5 1.1c.7.5 1.3 1.2 1.8 2.1s.7 1.9.8 3.1h-5.2c-.1-.8-.4-1.4-.8-1.8s-1-.6-1.8-.6c-1 0-1.8.4-2.3 1-.5.7-.8 1.7-.8 3.1v.2c0 1.4.3 2.5.8 3.2s1.3 1.1 2.4 1.1c.8 0 1.4-.2 1.9-.7s.8-1.1.9-2h5c-.1 2-.8 3.7-2.2 4.9-1.5 1.5-3.5 2.1-6.1 2.1z"/><path d="m292 130.2c-1.3 0-2.5-.2-3.5-.5-1.1-.4-2-.9-2.8-1.6s-1.4-1.6-1.9-2.6c-.4-1-.7-2.2-.7-3.5v-.2c0-1.3.2-2.5.7-3.5s1.1-1.9 1.9-2.7 1.7-1.3 2.8-1.7 2.2-.6 3.4-.6c1.1 0 2.2.2 3.2.5s1.9.8 2.6 1.5 1.3 1.5 1.8 2.6.7 2.3.7 3.8v1.5h-11.4c.1 1.1.4 1.9 1 2.5s1.4.9 2.4.9c.9 0 1.6-.2 2-.6s.7-.8.8-1.4h5.2c-.2 1.8-1.1 3.2-2.5 4.2-1.3.9-3.2 1.4-5.7 1.4zm2.8-10.3c0-1-.3-1.8-.8-2.3s-1.2-.8-2.1-.8-1.5.3-2.1.8-.9 1.3-1 2.3z"/><path d="m302.2 113.6h5.5v2.6c.4-.9 1.1-1.6 2-2.2s2-.9 3.4-.9c1.6 0 2.9.5 3.8 1.5s1.5 2.5 1.5 4.6v10.5h-5.5v-9.4c0-.9-.2-1.6-.6-2.1-.4-.4-1-.7-1.8-.7s-1.5.2-2 .7-.8 1.3-.8 2.3v9.1h-5.5z"/><path d="m327.7 130.2c-1.8 0-3.2-.5-4.2-1.4s-1.5-2.3-1.5-4.2v-7.2h-2v-3.8h2v-3.4h5.5v3.4h3.2v3.8h-3.2v6.7c0 .6.1 1 .4 1.3s.7.4 1.2.4c.3 0 .6 0 .8-.1s.5-.1.7-.2v4.2c-.4.1-.8.2-1.3.3-.4.1-1 .2-1.6.2z"/><path d="m338.2 130.2c-.8 0-1.5-.1-2.2-.4s-1.2-.6-1.7-1.1-.9-1.1-1.2-1.9-.4-1.6-.4-2.7v-10.6h5.5v9.7c0 .9.2 1.6.6 2s1 .7 1.7.7c.9 0 1.5-.2 2-.7s.7-1.3.7-2.3v-9.3h5.5v16.2h-5.5v-2.5c-.4.9-1.1 1.5-1.9 2.1-.6.5-1.7.8-3.1.8z"/><path d="m351.8 113.6h5.5v3.2c.5-1.2 1.2-2.1 2.1-2.6s1.9-.8 3.2-.8v5.2c-1.7 0-3 .2-3.9.8s-1.4 1.5-1.4 2.8v7.7h-5.5z"/><path d="m372.5 130.2c-1.3 0-2.5-.2-3.5-.5-1.1-.4-2-.9-2.8-1.6s-1.4-1.6-1.9-2.6c-.4-1-.7-2.2-.7-3.5v-.2c0-1.3.2-2.5.7-3.5s1.1-1.9 1.9-2.7 1.7-1.3 2.8-1.7 2.2-.6 3.4-.6c1.1 0 2.2.2 3.2.5s1.9.8 2.6 1.5 1.3 1.5 1.8 2.6.7 2.3.7 3.8v1.5h-11.4c.1 1.1.4 1.9 1 2.5s1.4.9 2.4.9c.9 0 1.6-.2 2-.6s.7-.8.8-1.4h5.2c-.2 1.8-1.1 3.2-2.5 4.2-1.3.9-3.2 1.4-5.7 1.4zm2.8-10.3c0-1-.3-1.8-.8-2.3s-1.2-.8-2.1-.8-1.5.3-2.1.8-.9 1.3-1 2.3z"/><path d="m396.9 130.2c-3.1 0-5.5-.6-7-1.9s-2.4-3.1-2.5-5.5h6c0 .4.1.8.2 1.1.1.4.3.6.6.9.2.3.6.5 1 .6s1 .2 1.6.2c.9 0 1.6-.2 2.1-.6s.7-.9.7-1.6c0-.3-.1-.6-.2-.9s-.3-.4-.6-.6c-.3-.1-.6-.3-1.1-.4s-1-.2-1.7-.3c-1.6-.2-2.9-.5-4-.8s-1.9-.8-2.6-1.4-1.1-1.2-1.4-2-.4-1.8-.4-2.9c0-1 .2-1.9.6-2.8s1-1.6 1.7-2.2 1.6-1.1 2.7-1.4 2.3-.5 3.6-.5c2.7 0 4.8.6 6.2 1.7s2.3 2.9 2.5 5.2h-5.9c-.1-.8-.4-1.4-.9-1.8s-1.1-.6-2-.6-1.5.2-1.9.5c-.4.4-.6.8-.6 1.4 0 .3 0 .6.2.8.1.2.3.4.6.6.2.2.6.3 1 .5.4.1 1 .2 1.7.3 1.4.2 2.6.4 3.7.7 1 .3 1.9.7 2.7 1.2.7.5 1.2 1.2 1.6 2s.5 1.8.5 3c0 1-.2 2-.6 2.9s-1 1.7-1.7 2.3c-.8.7-1.7 1.2-2.8 1.6-1 .5-2.2.7-3.6.7z"/><path d="m416 130.2c-1.3 0-2.5-.2-3.5-.5s-2-.9-2.8-1.6-1.4-1.6-1.8-2.6c-.5-1-.7-2.2-.7-3.5v-.2c0-1.3.2-2.5.7-3.5s1.1-1.9 1.9-2.7 1.7-1.3 2.8-1.7 2.2-.6 3.4-.6c1.1 0 2.2.2 3.2.5s1.9.8 2.6 1.5 1.3 1.5 1.8 2.6c.5 1 .7 2.3.7 3.8v1.5h-11.4c.1 1.1.4 1.9 1 2.5s1.4.9 2.4.9c.9 0 1.6-.2 2-.6s.7-.8.8-1.4h5.2c-.2 1.8-1.1 3.2-2.5 4.2-1.4.9-3.3 1.4-5.8 1.4zm2.8-10.3c0-1-.3-1.8-.8-2.3s-1.2-.8-2.1-.8-1.5.3-2.1.8-.9 1.3-1 2.3z"/><path d="m433.9 130.2c-1.2 0-2.4-.2-3.4-.5s-1.9-.9-2.7-1.6-1.4-1.5-1.8-2.6c-.4-1-.6-2.2-.6-3.6v-.2c0-1.3.2-2.5.7-3.6.5-1 1.1-1.9 1.9-2.7.8-.7 1.7-1.3 2.7-1.7s2.2-.6 3.4-.6c1 0 2 .1 2.9.3s1.7.6 2.5 1.1c.7.5 1.3 1.2 1.8 2.1s.7 1.9.8 3.1h-5.2c-.1-.8-.4-1.4-.8-1.8s-1-.6-1.8-.6c-1 0-1.8.4-2.3 1-.5.7-.8 1.7-.8 3.1v.2c0 1.4.3 2.5.8 3.2s1.3 1.1 2.4 1.1c.8 0 1.4-.2 1.9-.7s.8-1.1.9-2h5c-.1 2-.8 3.7-2.2 4.9-1.5 1.5-3.5 2.1-6.1 2.1z"/><path d="m449.3 130.2c-.8 0-1.5-.1-2.2-.4s-1.2-.6-1.7-1.1-.9-1.1-1.2-1.9-.4-1.6-.4-2.7v-10.6h5.5v9.7c0 .9.2 1.6.6 2s1 .7 1.7.7c.9 0 1.5-.2 2-.7s.7-1.3.7-2.3v-9.3h5.5v16.2h-5.5v-2.5c-.4.9-1.1 1.5-1.9 2.1s-1.8.8-3.1.8z"/><path d="m462.9 113.6h5.5v3.2c.5-1.2 1.2-2.1 2.1-2.6s1.9-.8 3.2-.8v5.2c-1.7 0-3 .2-3.9.8s-1.4 1.5-1.4 2.8v7.7h-5.5z"/><path d="m478.7 112.1c-.9 0-1.6-.3-2.2-.8s-.9-1.2-.9-2 .3-1.5.9-2.1 1.3-.8 2.2-.8 1.6.3 2.2.8.9 1.2.9 2.1c0 .8-.3 1.5-.9 2s-1.4.8-2.2.8zm-2.8 1.5h5.5v16.2h-5.5z"/><path d="m491 130.2c-1.8 0-3.2-.5-4.2-1.4s-1.5-2.3-1.5-4.2v-7.2h-2v-3.8h2v-3.4h5.5v3.4h3.2v3.8h-3.2v6.7c0 .6.1 1 .4 1.3s.7.4 1.2.4c.3 0 .6 0 .8-.1s.5-.1.7-.2v4.2c-.3.1-.8.2-1.3.3-.4.1-.9.2-1.6.2z"/><path d="m501.3 128.2-6.5-14.6h6l3.3 8.6 3.1-8.6h5.3l-8.7 21.6h-5.3z"/></g></svg>