<svg xmlns="http://www.w3.org/2000/svg" width="60" height="21" viewBox="0 0 60 21">
  <defs>
    <style>
      .a {
        fill: #fff;
      }
    </style>
  </defs>
  <title>icon-envelope-white-angled</title>
  <path class="a" d="M50.89,18.5a.79.79,0,0,1-.67.47H27.49a.33.33,0,0,1-.32-.47L31.28,7.18a4.74,4.74,0,0,0,.71,1c1.62,1.62,3.24,3.27,4.77,5,.82.93,1.84,2.06,3.45,2.06h0c1.61,0,3.46-1.14,5-2.06,2.77-1.71,5.59-3.36,8.39-5a13.75,13.75,0,0,0,1.42-1ZM56.63,2.9C56.17,4.16,54.3,5.81,53,6.57q-4,2.34-7.94,4.7c-1.06.64-3,2-4.13,2h0c-1.09,0-2.08-1.36-2.68-2Q36,8.91,33.71,6.57A3.87,3.87,0,0,1,33,2.35a.79.79,0,0,1,.67-.47H56.51C57.1,1.88,56.77,2.53,56.63,2.9Zm2.22-.49A1.65,1.65,0,0,0,57.23,0H34.29a3.86,3.86,0,0,0-3.36,2.38L25.05,18.59A1.65,1.65,0,0,0,26.68,21H49.61A3.86,3.86,0,0,0,53,18.59ZM17.78,3h10L27,5h-10Zm-7.53,7h15l-.73,2h-15ZM1.73,17h21L22,19H1Z"/>
</svg>
