<svg xmlns="http://www.w3.org/2000/svg" xmlns:xlink="http://www.w3.org/1999/xlink" width="27" height="15.7" viewBox="0 0 27 15.7">
<style type="text/css">
	.st0{clip-path:url(#XMLID_2_);fill:#CB001C;}
	.st1{clip-path:url(#XMLID_2_);fill:#FFFFFF;}
	.st2{clip-path:url(#XMLID_2_);fill:#2A3560;}
</style>
<g id="USA_4_">
	<g id="XMLID_17319_">
		<g id="XMLID_17320_">
			<defs>
				<rect id="XMLID_17240_" y="0.1" width="27" height="15.7"/>
			</defs>
			<clipPath id="XMLID_2_">
				<use xlink:href="#XMLID_17240_"  style="overflow:visible;"/>
			</clipPath>
			<rect id="XMLID_17317_" y="14.7" class="st0" width="27" height="1.2"/>
			<rect id="XMLID_17316_" y="13.5" class="st1" width="27" height="1.2"/>
			<rect id="XMLID_17315_" y="12.2" class="st0" width="27" height="1.2"/>
			<rect id="XMLID_17314_" y="11" class="st1" width="27" height="1.2"/>
			<rect id="XMLID_17312_" y="9.8" class="st0" width="27" height="1.2"/>
			<rect id="XMLID_17311_" y="8.6" class="st1" width="27" height="1.2"/>
			<rect id="XMLID_17310_" y="7.4" class="st0" width="27" height="1.2"/>
			<rect id="XMLID_17309_" y="6.2" class="st1" width="27" height="1.2"/>
			<rect id="XMLID_17308_" y="5" class="st0" width="27" height="1.2"/>
			<rect id="XMLID_17307_" y="3.8" class="st1" width="27" height="1.2"/>
			<rect id="XMLID_17306_" y="2.5" class="st0" width="27" height="1.2"/>
			<rect id="XMLID_17305_" y="1.3" class="st1" width="27" height="1.2"/>
			<rect id="XMLID_17304_" y="0.1" class="st0" width="27" height="1.2"/>
			<rect id="XMLID_17303_" y="0.1" class="st2" width="12.3" height="8.5"/>
			<polygon id="XMLID_17301_" class="st1" points="1.1,1.1 1.2,1.4 1.6,1.4 1.3,1.6 1.4,1.9 1.1,1.7 0.8,1.9 0.9,1.6 0.7,1.4 1,1.4 
							"/>
			<polygon id="XMLID_17300_" class="st1" points="1.1,2.5 1.2,2.8 1.6,2.8 1.3,3 1.4,3.3 1.1,3.1 0.8,3.3 0.9,3 0.7,2.8 1,2.8 			
				"/>
			<polygon id="XMLID_17299_" class="st1" points="1.1,3.9 1.2,4.2 1.6,4.2 1.3,4.4 1.4,4.7 1.1,4.5 0.8,4.7 0.9,4.4 0.7,4.2 1,4.2 
							"/>
			<polygon id="XMLID_17298_" class="st1" points="1.1,5.3 1.2,5.6 1.6,5.6 1.3,5.8 1.4,6.1 1.1,5.9 0.8,6.1 0.9,5.8 0.7,5.6 1,5.6 
							"/>
			<polygon id="XMLID_17297_" class="st1" points="1.1,6.7 1.2,7 1.6,7 1.3,7.2 1.4,7.6 1.1,7.4 0.8,7.6 0.9,7.2 0.7,7 1,7 			"/>
			<polygon id="XMLID_17296_" class="st1" points="2.1,1.8 2.2,2.1 2.5,2.1 2.3,2.3 2.4,2.6 2.1,2.4 1.8,2.6 1.9,2.3 1.7,2.1 2,2.1 
							"/>
			<polygon id="XMLID_17295_" class="st1" points="2.1,3.2 2.2,3.5 2.5,3.5 2.3,3.7 2.4,4.1 2.1,3.9 1.8,4.1 1.9,3.7 1.7,3.5 2,3.5 
							"/>
			<polygon id="XMLID_17294_" class="st1" points="2.1,4.6 2.2,5 2.5,5 2.3,5.2 2.4,5.5 2.1,5.3 1.8,5.5 1.9,5.2 1.7,5 2,5 			"/>
			<polygon id="XMLID_17293_" class="st1" points="2.1,6.1 2.2,6.4 2.5,6.4 2.3,6.6 2.4,6.9 2.1,6.7 1.8,6.9 1.9,6.6 1.7,6.4 2,6.4 
							"/>
			<polygon id="XMLID_17292_" class="st1" points="3.1,1.1 3.2,1.4 3.5,1.4 3.3,1.6 3.4,1.9 3.1,1.7 2.8,1.9 2.9,1.6 2.7,1.4 3,1.4 
							"/>
			<polygon id="XMLID_17290_" class="st1" points="3.1,2.5 3.2,2.8 3.5,2.8 3.3,3 3.4,3.3 3.1,3.1 2.8,3.3 2.9,3 2.7,2.8 3,2.8 			
				"/>
			<polygon id="XMLID_17289_" class="st1" points="3.1,3.9 3.2,4.2 3.5,4.2 3.3,4.4 3.4,4.7 3.1,4.5 2.8,4.7 2.9,4.4 2.7,4.2 3,4.2 
							"/>
			<polygon id="XMLID_17288_" class="st1" points="3.1,5.3 3.2,5.6 3.5,5.6 3.3,5.8 3.4,6.1 3.1,5.9 2.8,6.1 2.9,5.8 2.7,5.6 3,5.6 
							"/>
			<polygon id="XMLID_17287_" class="st1" points="3.1,6.7 3.2,7 3.5,7 3.3,7.2 3.4,7.6 3.1,7.4 2.8,7.6 2.9,7.2 2.7,7 3,7 			"/>
			<polygon id="XMLID_17286_" class="st1" points="4.1,1.8 4.2,2.1 4.5,2.1 4.3,2.3 4.4,2.6 4.1,2.4 3.8,2.6 3.9,2.3 3.6,2.1 4,2.1 
							"/>
			<polygon id="XMLID_17285_" class="st1" points="4.1,3.2 4.2,3.5 4.5,3.5 4.3,3.7 4.4,4.1 4.1,3.9 3.8,4.1 3.9,3.7 3.6,3.5 4,3.5 
							"/>
			<polygon id="XMLID_17284_" class="st1" points="4.1,4.6 4.2,5 4.5,5 4.3,5.2 4.4,5.5 4.1,5.3 3.8,5.5 3.9,5.2 3.6,5 4,5 			"/>
			<polygon id="XMLID_17283_" class="st1" points="4.1,6.1 4.2,6.4 4.5,6.4 4.3,6.6 4.4,6.9 4.1,6.7 3.8,6.9 3.9,6.6 3.6,6.4 4,6.4 
							"/>
			<polygon id="XMLID_17282_" class="st1" points="5.1,1.1 5.2,1.4 5.5,1.4 5.2,1.6 5.4,1.9 5.1,1.7 4.8,1.9 4.9,1.6 4.6,1.4 5,1.4 
							"/>
			<polygon id="XMLID_17280_" class="st1" points="5.1,2.5 5.2,2.8 5.5,2.8 5.2,3 5.4,3.3 5.1,3.1 4.8,3.3 4.9,3 4.6,2.8 5,2.8 			
				"/>
			<polygon id="XMLID_17279_" class="st1" points="5.1,3.9 5.2,4.2 5.5,4.2 5.2,4.4 5.4,4.7 5.1,4.5 4.8,4.7 4.9,4.4 4.6,4.2 5,4.2 
							"/>
			<polygon id="XMLID_17278_" class="st1" points="5.1,5.3 5.2,5.6 5.5,5.6 5.2,5.8 5.4,6.1 5.1,5.9 4.8,6.1 4.9,5.8 4.6,5.6 5,5.6 
							"/>
			<polygon id="XMLID_17277_" class="st1" points="5.1,6.7 5.2,7 5.5,7 5.2,7.2 5.4,7.6 5.1,7.4 4.8,7.6 4.9,7.2 4.6,7 5,7 			"/>
			<polygon id="XMLID_17276_" class="st1" points="6.1,1.8 6.2,2.1 6.5,2.1 6.2,2.3 6.3,2.6 6.1,2.4 5.8,2.6 5.9,2.3 5.6,2.1 6,2.1 
							"/>
			<polygon id="XMLID_17275_" class="st1" points="6.1,3.2 6.2,3.5 6.5,3.5 6.2,3.7 6.3,4.1 6.1,3.9 5.8,4.1 5.9,3.7 5.6,3.5 6,3.5 
							"/>
			<polygon id="XMLID_17274_" class="st1" points="6.1,4.6 6.2,5 6.5,5 6.2,5.2 6.3,5.5 6.1,5.3 5.8,5.5 5.9,5.2 5.6,5 6,5 			"/>
			<polygon id="XMLID_17273_" class="st1" points="6.1,6.1 6.2,6.4 6.5,6.4 6.2,6.6 6.3,6.9 6.1,6.7 5.8,6.9 5.9,6.6 5.6,6.4 6,6.4 
							"/>
			<polygon id="XMLID_17272_" class="st1" points="7.1,1.1 7.2,1.4 7.5,1.4 7.2,1.6 7.3,1.9 7.1,1.7 6.8,1.9 6.9,1.6 6.6,1.4 7,1.4 
							"/>
			<polygon id="XMLID_17271_" class="st1" points="7.1,2.5 7.2,2.8 7.5,2.8 7.2,3 7.3,3.3 7.1,3.1 6.8,3.3 6.9,3 6.6,2.8 7,2.8 			
				"/>
			<polygon id="XMLID_17270_" class="st1" points="7.1,3.9 7.2,4.2 7.5,4.2 7.2,4.4 7.3,4.7 7.1,4.5 6.8,4.7 6.9,4.4 6.6,4.2 7,4.2 
							"/>
			<polygon id="XMLID_17269_" class="st1" points="7.1,5.3 7.2,5.6 7.5,5.6 7.2,5.8 7.3,6.1 7.1,5.9 6.8,6.1 6.9,5.8 6.6,5.6 7,5.6 
							"/>
			<polygon id="XMLID_17268_" class="st1" points="7.1,6.7 7.2,7 7.5,7 7.2,7.2 7.3,7.6 7.1,7.4 6.8,7.6 6.9,7.2 6.6,7 7,7 			"/>
			<polygon id="XMLID_17267_" class="st1" points="8.1,1.8 8.2,2.1 8.5,2.1 8.2,2.3 8.3,2.6 8.1,2.4 7.8,2.6 7.9,2.3 7.6,2.1 
				7.9,2.1 			"/>
			<polygon id="XMLID_17266_" class="st1" points="8.1,3.2 8.2,3.5 8.5,3.5 8.2,3.7 8.3,4.1 8.1,3.9 7.8,4.1 7.9,3.7 7.6,3.5 
				7.9,3.5 			"/>
			<polygon id="XMLID_17265_" class="st1" points="8.1,4.6 8.2,5 8.5,5 8.2,5.2 8.3,5.5 8.1,5.3 7.8,5.5 7.9,5.2 7.6,5 7.9,5 			"/>
			<polygon id="XMLID_17264_" class="st1" points="8.1,6.1 8.2,6.4 8.5,6.4 8.2,6.6 8.3,6.9 8.1,6.7 7.8,6.9 7.9,6.6 7.6,6.4 
				7.9,6.4 			"/>
			<polygon id="XMLID_17263_" class="st1" points="9.1,1.1 9.2,1.4 9.5,1.4 9.2,1.6 9.3,1.9 9.1,1.7 8.8,1.9 8.9,1.6 8.6,1.4 
				8.9,1.4 			"/>
			<polygon id="XMLID_17262_" class="st1" points="9.1,2.5 9.2,2.8 9.5,2.8 9.2,3 9.3,3.3 9.1,3.1 8.8,3.3 8.9,3 8.6,2.8 8.9,2.8 
							"/>
			<polygon id="XMLID_17261_" class="st1" points="9.1,3.9 9.2,4.2 9.5,4.2 9.2,4.4 9.3,4.7 9.1,4.5 8.8,4.7 8.9,4.4 8.6,4.2 
				8.9,4.2 			"/>
			<polygon id="XMLID_17259_" class="st1" points="9.1,5.3 9.2,5.6 9.5,5.6 9.2,5.8 9.3,6.1 9.1,5.9 8.8,6.1 8.9,5.8 8.6,5.6 
				8.9,5.6 			"/>
			<polygon id="XMLID_17255_" class="st1" points="9.1,6.7 9.2,7 9.5,7 9.2,7.2 9.3,7.6 9.1,7.4 8.8,7.6 8.9,7.2 8.6,7 8.9,7 			"/>
			<polygon id="XMLID_17254_" class="st1" points="10,1.8 10.1,2.1 10.5,2.1 10.2,2.3 10.3,2.6 10,2.4 9.8,2.6 9.9,2.3 9.6,2.1 
				9.9,2.1 			"/>
			<polygon id="XMLID_17253_" class="st1" points="10,3.2 10.1,3.5 10.5,3.5 10.2,3.7 10.3,4.1 10,3.9 9.8,4.1 9.9,3.7 9.6,3.5 
				9.9,3.5 			"/>
			<polygon id="XMLID_17249_" class="st1" points="10,4.6 10.1,5 10.5,5 10.2,5.2 10.3,5.5 10,5.3 9.8,5.5 9.9,5.2 9.6,5 9.9,5 			
				"/>
			<polygon id="XMLID_17248_" class="st1" points="10,6.1 10.1,6.4 10.5,6.4 10.2,6.6 10.3,6.9 10,6.7 9.8,6.9 9.9,6.6 9.6,6.4 
				9.9,6.4 			"/>
			<polygon id="XMLID_17247_" class="st1" points="11,1.1 11.1,1.4 11.5,1.4 11.2,1.6 11.3,1.9 11,1.7 10.8,1.9 10.9,1.6 10.6,1.4 
				10.9,1.4 			"/>
			<polygon id="XMLID_17246_" class="st1" points="11,2.5 11.1,2.8 11.5,2.8 11.2,3 11.3,3.3 11,3.1 10.8,3.3 10.9,3 10.6,2.8 
				10.9,2.8 			"/>
			<polygon id="XMLID_17245_" class="st1" points="11,3.9 11.1,4.2 11.5,4.2 11.2,4.4 11.3,4.7 11,4.5 10.8,4.7 10.9,4.4 10.6,4.2 
				10.9,4.2 			"/>
			<polygon id="XMLID_17244_" class="st1" points="11,5.3 11.1,5.6 11.5,5.6 11.2,5.8 11.3,6.1 11,5.9 10.8,6.1 10.9,5.8 10.6,5.6 
				10.9,5.6 			"/>
			<polygon id="XMLID_17243_" class="st1" points="11,6.7 11.1,7 11.5,7 11.2,7.2 11.3,7.6 11,7.4 10.8,7.6 10.9,7.2 10.6,7 10.9,7 
							"/>
		</g>
	</g>
</g>
</svg>
