<svg xmlns="http://www.w3.org/2000/svg" xmlns:xlink="http://www.w3.org/1999/xlink" width="27" height="16" viewBox="0 0 27 16">
  <defs>
    <style>
      .a {
        fill: none;
      }

      .b {
        clip-path: url(#a);
      }

      .c {
        fill: #180087;
      }

      .d {
        fill: #fff;
      }

      .e {
        fill: #ea0020;
      }
    </style>
    <clipPath id="a">
      <rect class="a" y="0.12" width="27" height="15.75"/>
    </clipPath>
  </defs>
  <title>icon-flag-AU</title>
  <g class="b">
    <rect class="c" y="0.12" width="27" height="15.75"/>
    <polygon class="d" points="7.1 9.77 7.51 11.05 8.77 10.58 8.03 11.7 9.18 12.38 7.84 12.5 8.03 13.83 7.1 12.85 6.18 13.83 6.36 12.5 5.03 12.38 6.18 11.7 5.44 10.58 6.69 11.05 7.1 9.77"/>
    <polygon class="d" points="21.31 12.07 21.5 12.68 22.1 12.46 21.75 12.99 22.3 13.32 21.66 13.37 21.75 14 21.31 13.54 20.87 14 20.96 13.37 20.32 13.32 20.87 12.99 20.52 12.46 21.11 12.68 21.31 12.07"/>
    <polygon class="d" points="17.76 6.45 17.95 7.06 18.55 6.83 18.2 7.37 18.75 7.69 18.11 7.75 18.2 8.38 17.76 7.92 17.32 8.38 17.4 7.75 16.77 7.69 17.32 7.37 16.96 6.83 17.56 7.06 17.76 6.45"/>
    <polygon class="d" points="21.31 2.6 21.5 3.21 22.1 2.99 21.75 3.52 22.3 3.85 21.66 3.9 21.75 4.53 21.31 4.07 20.87 4.53 20.96 3.9 20.32 3.85 20.87 3.52 20.52 2.99 21.11 3.21 21.31 2.6"/>
    <polygon class="d" points="24.47 5.5 24.66 6.11 25.26 5.89 24.91 6.42 25.46 6.74 24.82 6.8 24.91 7.43 24.47 6.97 24.03 7.43 24.11 6.8 23.48 6.74 24.03 6.42 23.68 5.89 24.27 6.11 24.47 5.5"/>
    <polygon class="d" points="22.73 8.35 22.89 8.73 23.29 8.76 22.98 9.03 23.08 9.43 22.73 9.21 22.38 9.43 22.48 9.03 22.17 8.76 22.57 8.73 22.73 8.35"/>
    <polygon class="d" points="5.92 0.13 5.92 2.49 0 2.49 0 4.86 5.92 4.86 5.92 7.23 8.29 7.23 8.29 4.86 14.21 4.86 14.21 2.49 8.29 2.49 8.29 0.13 5.92 0.13"/>
    <polygon class="d" points="0 0.13 0 0.92 12.62 7.23 14.21 7.23 14.21 6.43 1.59 0.13 0 0.13"/>
    <polygon class="d" points="12.62 0.13 0 6.43 0 7.23 1.59 7.23 14.21 0.92 14.21 0.13 12.62 0.13"/>
    <polygon class="e" points="6.39 0.13 6.39 2.97 0 2.97 0 4.39 6.39 4.39 6.39 7.23 7.81 7.23 7.81 4.39 14.21 4.39 14.21 2.97 7.81 2.97 7.81 0.13 6.39 0.13"/>
    <path class="e" d="M0,.12V.65L3.67,2.49H4.74Zm13.15,0L8.41,2.49H9.47L14.21.12Z"/>
    <path class="e" d="M4.74,4.86,0,7.23H1.06L5.79,4.86Zm4.74,0,4.74,2.37V6.7L10.53,4.86Z"/>
  </g>
</svg>
