<svg 
 xmlns="http://www.w3.org/2000/svg"
 xmlns:xlink="http://www.w3.org/1999/xlink"
 width="100px" height="101px">
<path fill-rule="evenodd"  fill="rgb(218, 25, 43)"
 d="M-0.001,0.821 L100.001,0.821 L100.001,100.742 L-0.001,100.742 L-0.001,0.821 Z"/>
<path fill-rule="evenodd"  fill="rgb(255, 255, 255)"
 d="M71.429,68.624 L60.714,57.919 C62.500,56.134 64.286,51.788 64.286,47.213 C64.286,36.507 56.383,29.370 46.429,29.370 C36.474,29.370 28.571,37.425 28.571,47.213 C28.571,57.001 36.474,65.055 46.429,65.055 C50.729,65.055 54.044,63.958 57.143,61.487 L67.858,72.193 C67.858,72.193 69.643,73.977 71.429,72.193 C73.215,70.409 71.429,68.624 71.429,68.624 ZM46.429,61.487 C38.006,61.487 32.142,55.495 32.142,47.213 C32.142,38.931 38.006,32.938 46.429,32.938 C54.851,32.938 60.714,40.076 60.714,47.213 C60.714,55.495 54.851,61.487 46.429,61.487 Z"/>
</svg>