<svg xmlns="http://www.w3.org/2000/svg" width="52" height="21" viewBox="0 0 52 21">
  <metadata><?xpacket begin="﻿" id="W5M0MpCehiHzreSzNTczkc9d"?>
<x:xmpmeta xmlns:x="adobe:ns:meta/" x:xmptk="Adobe XMP Core 5.6-c138 79.159824, 2016/09/14-01:09:01        ">
   <rdf:RDF xmlns:rdf="http://www.w3.org/1999/02/22-rdf-syntax-ns#">
      <rdf:Description rdf:about=""/>
   </rdf:RDF>
</x:xmpmeta>
                                                                                                    
                                                                                                    
                                                                                                    
                                                                                                    
                                                                                                    
                                                                                                    
                                                                                                    
                                                                                                    
                                                                                                    
                                                                                                    
                                                                                                    
                                                                                                    
                                                                                                    
                                                                                                    
                                                                                                    
                                                                                                    
                                                                                                    
                                                                                                    
                                                                                                    
                                                                                                    
                           
<?xpacket end="w"?></metadata>
<defs>
    <style>
      .cls-1 {
        fill: #09889f;
        fill-rule: evenodd;
      }
    </style>
  </defs>
  <path id="Email_Icon" data-name="Email Icon" class="cls-1" d="M1031.99,47.6a0.506,0.506,0,0,1-.5.476h-23a0.506,0.506,0,0,1-.5-0.476V36.16a8.442,8.442,0,0,0,1.08.983c2.23,1.639,4.48,3.307,6.66,5.035,1.17,0.939,2.62,2.087,4.24,2.087h0.04c1.62,0,3.07-1.147,4.25-2.087,2.17-1.729,4.42-3.4,6.65-5.035a8.442,8.442,0,0,0,1.08-.983V47.6Zm0-15.657c0,1.266-1.28,2.92-2.3,3.679q-3.135,2.348-6.26,4.724c-0.83.642-2.33,2.012-3.42,2.012h-0.04c-1.09,0-2.59-1.37-3.42-2.012-2.07-1.579-4.17-3.159-6.26-4.724a5.29,5.29,0,0,1-2.3-4.231,0.506,0.506,0,0,1,.5-0.476h23C1032.08,30.916,1031.99,31.572,1031.99,31.944Zm2-.552a2.454,2.454,0,0,0-2.5-2.383h-23a2.454,2.454,0,0,0-2.5,2.383V47.6a2.454,2.454,0,0,0,2.5,2.384h23a2.454,2.454,0,0,0,2.5-2.384V31.392ZM993,32h10v2H993V32Zm-5,7h15v2H988V39Zm-6,7h21v2H982V46Z" transform="translate(-982 -29)"/>
</svg>
