<svg xmlns="http://www.w3.org/2000/svg" xmlns:xlink="http://www.w3.org/1999/xlink" width="27" height="16" viewBox="0 0 27 16">
  <defs>
    <style>
      .a {
        fill: none;
      }

      .b {
        clip-path: url(#a);
      }

      .c {
        fill: #fff;
      }

      .d {
        fill: #bd0034;
      }

      .e {
        fill: #1a237b;
      }
    </style>
    <clipPath id="a">
      <rect class="a" y="0.13" width="27" height="15.75"/>
    </clipPath>
  </defs>
  <title>icon-flag-GB</title>
  <g class="b">
    <rect class="c" y="0.13" width="27" height="15.75"/>
    <polygon class="d" points="18.08 5.82 27 0.82 27 0.13 26.39 0.13 16.21 5.82 18.08 5.82"/>
    <polygon class="d" points="17.66 10.5 27 15.72 27 14.68 19.52 10.5 17.66 10.5"/>
    <polygon class="d" points="0 1.32 7.99 5.82 9.86 5.82 0 0.28 0 1.32"/>
    <polygon class="d" points="9.44 10.5 0 15.78 0 15.88 1.71 15.88 11.3 10.5 9.44 10.5"/>
    <polygon class="e" points="25.15 0.13 15.7 0.13 15.7 5.42 25.15 0.13"/>
    <polygon class="e" points="11.53 0.13 2.11 0.13 11.53 5.42 11.53 0.13"/>
    <polygon class="e" points="27 5.82 27 2.21 20.59 5.82 27 5.82"/>
    <polygon class="e" points="27 14.07 27 10.5 20.59 10.5 27 14.07"/>
    <polygon class="e" points="2.64 15.88 11.53 15.88 11.53 10.9 2.64 15.88"/>
    <polygon class="e" points="15.7 15.88 24.61 15.88 15.7 10.9 15.7 15.88"/>
    <polygon class="e" points="0 10.5 0 14.23 6.64 10.5 0 10.5"/>
    <polygon class="e" points="0 5.82 6.64 5.82 0 2.08 0 5.82"/>
    <polygon class="d" points="12.36 0.13 12.36 6.75 0 6.75 0 9.56 12.36 9.56 12.36 15.88 14.86 15.88 14.86 9.56 27 9.56 27 6.75 14.86 6.75 14.86 0.13 12.36 0.13"/>
  </g>
</svg>
